<svg xmlns="http://www.w3.org/2000/svg" width="80" height="80" viewBox="0 0 80 80">
  <rect width="80" height="80" rx="16" fill="#1b1812"/>
  <path fill-rule="evenodd" fill="#f1ead9" transform="translate(9 9)" d="M 0 33.469 L 0 61.815 L 46.788 61.815 L 46.788 44.056 C 46.788 41.87 48.154 41.324 48.837 41.324 L 62.156 41.324 L 62.156 32.786 L 49.52 32.786 C 48.154 32.786 47.812 31.647 47.812 31.078 L 47.812 0 L 38.933 0 L 38.933 22.54 C 38.933 24.248 37.567 24.248 37.567 24.248 L 22.882 24.248 C 20.833 24.248 20.833 22.54 20.833 22.54 L 20.833 0 L 9.562 0 L 9.562 31.42 C 9.562 33.469 8.196 33.469 8.196 33.469 L 0 33.469 Z M 33.5 36.4 A 4.3 4.3 0 1 1 24.9 36.4 A 4.3 4.3 0 1 1 33.5 36.4 Z"/>
</svg>
